# xmcd
#
# Track frame offsets: 
#        150
#        13500
#        24037
#        41737
#        55312
#        71137
#        85762
#        97653
#        112428
#        125965
#        138002
#        151839
#
# Disc length: 2184 seconds
#
# Revision: 0
# Processed by: cddbd v1.5.1PL0 Copyright (c) Steve Scherf et al.
# Submitted via: ExactAudioCopy v0.90b4
#
DISCID=9808860c
DTITLE=Xavi and Ray - For All Times
DYEAR=2001
DGENRE=Bluegrass
TTITLE0=Here Comes the Sunshine
TTITLE1=Times Were That Way
TTITLE2=Like A Bell
TTITLE3=Blue Skies
TTITLE4=Family Life
TTITLE5=Warm
TTITLE6=Oh, My Love
TTITLE7=Cindy
TTITLE8=You're My Love
TTITLE9=My Joyce
TTITLE10=Blue Jay Fly
TTITLE11=No Time To Go
EXTD=
EXTT0=
EXTT1=
EXTT2=
EXTT3=
EXTT4=
EXTT5=
EXTT6=
EXTT7=
EXTT8=
EXTT9=
EXTT10=
EXTT11=
PLAYORDER=
